<?xml version="1.0" encoding="UTF-8" standalone="no"?>
<!DOCTYPE svg PUBLIC "-//W3C//DTD SVG 1.1//EN"
 "http://www.w3.org/Graphics/SVG/1.1/DTD/svg11.dtd">
<!-- Generated by graphviz version 2.40.1 (20161225.0304)
 -->
<!-- Title: C4SimpleDiagram Pages: 1 -->
<svg width="1653pt" height="532pt"
 viewBox="0.00 0.00 1652.76 532.20" xmlns="http://www.w3.org/2000/svg" xmlns:xlink="http://www.w3.org/1999/xlink">
<g id="graph0" class="graph" transform="scale(1 1) rotate(0) translate(4 528.2)">
<title>C4SimpleDiagram</title>
<polygon fill="#ffffff" stroke="transparent" points="-4,4 -4,-528.2 1648.7561,-528.2 1648.7561,4 -4,4"/>
<text text-anchor="middle" x="822.378" y="-7.6" font-family="Arial" font-size="12.00" fill="#000000">C4 Component Diagram</text>
<g id="clust2" class="cluster">
<title>cluster_services</title>
<polygon fill="#ffe4e1" stroke="#333333" points="789.0031,-64.4 789.0031,-478.4 1311.0007,-478.4 1311.0007,-64.4 789.0031,-64.4"/>
<text text-anchor="middle" x="1050.0019" y="-463.6" font-family="Arial" font-size="12.00" fill="#000000">Микросервисы (Java)</text>
</g>
<g id="clust4" class="cluster">
<title>cluster_databases</title>
<polygon fill="#f0e6fa" stroke="#333333" points="1404.0001,-86.4 1404.0001,-267.4 1644.7561,-267.4 1644.7561,-86.4 1404.0001,-86.4"/>
<text text-anchor="middle" x="1524.3781" y="-252.6" font-family="Arial" font-size="12.00" fill="#000000">Базы данных (PostgreSQL)</text>
</g>
<!-- customer -->
<g id="node1" class="node">
<title>customer</title>
<polygon fill="#e5e5e5" stroke="transparent" points="29.5,-423.4 29.5,-491.4 198.5,-491.4 198.5,-423.4 29.5,-423.4"/>
<text text-anchor="start" x="37" y="-463.8" font-family="Times,serif" font-size="24.00" fill="#000000">👤</text>
<text text-anchor="start" x="59.0056" y="-463.8" font-family="Times,serif" font-size="14.00" fill="#000000"> </text>
<text text-anchor="start" x="67.1662" y="-463.8" font-family="Times,serif" font-style="italic" font-size="14.00" fill="#000000">«actor»</text>
<text text-anchor="start" x="36.9281" y="-434.8" font-family="Times,serif" font-weight="bold" font-size="14.00" fill="#000000">покупатель</text>
<polygon fill="none" stroke="#000000" points="29.5,-423.4 29.5,-491.4 198.5,-491.4 198.5,-423.4 29.5,-423.4"/>
</g>
<!-- web -->
<g id="node3" class="node">
<title>web</title>
<polygon fill="#add8e6" stroke="transparent" points="336.5062,-282.4 336.5062,-372.4 443.5062,-372.4 443.5062,-282.4 336.5062,-282.4"/>
<text text-anchor="start" x="343.5922" y="-353.8" font-family="Times,serif" font-style="italic" font-size="14.00" fill="#000000">&quot;React web app&quot;</text>
<text text-anchor="start" x="380.5062" y="-321.4" font-family="Times,serif" font-size="20.00" fill="#000000">🌐</text>
<text text-anchor="start" x="350.2674" y="-293.8" font-family="Times,serif" font-weight="bold" font-size="14.00" fill="#000000">Web Frontend</text>
<polygon fill="none" stroke="#000000" points="336.5062,-282.4 336.5062,-372.4 443.5062,-372.4 443.5062,-282.4 336.5062,-282.4"/>
</g>
<!-- customer&#45;&gt;web -->
<g id="edge1" class="edge">
<title>customer&#45;&gt;web</title>
<path fill="none" stroke="#000000" d="M114.7561,-419.208C114.7561,-396.0359 114.7561,-370.9 114.7561,-370.9 114.7561,-370.9 318.2347,-370.9 318.2347,-370.9"/>
<polygon fill="#000000" stroke="#000000" points="318.2347,-374.4001 328.2347,-370.9 318.2347,-367.4001 318.2347,-374.4001"/>
<text text-anchor="middle" x="278.2531" y="-400.1" font-family="Arial" font-size="9.00" fill="#000000">use</text>
</g>
<!-- mobile -->
<g id="node4" class="node">
<title>mobile</title>
<polygon fill="#90ee90" stroke="transparent" points="340.5062,-423.4 340.5062,-513.4 439.5062,-513.4 439.5062,-423.4 340.5062,-423.4"/>
<text text-anchor="start" x="347.5451" y="-494.8" font-family="Times,serif" font-style="italic" font-size="14.00" fill="#000000">«mobile app»</text>
<text text-anchor="start" x="378.0062" y="-462.4" font-family="Times,serif" font-size="20.00" fill="#000000">📱</text>
<text text-anchor="start" x="356.4827" y="-434.8" font-family="Times,serif" font-weight="bold" font-size="14.00" fill="#000000">Mobile App</text>
<polygon fill="none" stroke="#000000" points="340.5062,-423.4 340.5062,-513.4 439.5062,-513.4 439.5062,-423.4 340.5062,-423.4"/>
</g>
<!-- customer&#45;&gt;mobile -->
<g id="edge2" class="edge">
<title>customer&#45;&gt;mobile</title>
<path fill="none" stroke="#000000" d="M206.6739,-457.4C206.6739,-457.4 322.1476,-457.4 322.1476,-457.4"/>
<polygon fill="#000000" stroke="#000000" points="322.1476,-460.9001 332.1476,-457.4 322.1475,-453.9001 322.1476,-460.9001"/>
<text text-anchor="middle" x="278.2531" y="-465.1" font-family="Arial" font-size="9.00" fill="#000000">use</text>
</g>
<!-- admin -->
<g id="node2" class="node">
<title>admin</title>
<polygon fill="#e5e5e5" stroke="transparent" points="8,-293.4 8,-361.4 220,-361.4 220,-293.4 8,-293.4"/>
<text text-anchor="start" x="15" y="-333.8" font-family="Times,serif" font-size="24.00" fill="#000000">👮</text>
<text text-anchor="start" x="46.3416" y="-333.8" font-family="Times,serif" font-size="14.00" fill="#000000"> </text>
<text text-anchor="start" x="49.8416" y="-333.8" font-family="Times,serif" font-style="italic" font-size="14.00" fill="#000000">«actor»</text>
<text text-anchor="start" x="14.8394" y="-304.8" font-family="Times,serif" font-weight="bold" font-size="14.00" fill="#000000">администратор</text>
<polygon fill="none" stroke="#000000" points="8,-293.4 8,-361.4 220,-361.4 220,-293.4 8,-293.4"/>
</g>
<!-- admin&#45;&gt;web -->
<g id="edge3" class="edge">
<title>admin&#45;&gt;web</title>
<path fill="none" stroke="#000000" d="M228.2546,-327.4C228.2546,-327.4 318.2778,-327.4 318.2778,-327.4"/>
<polygon fill="#000000" stroke="#000000" points="318.2778,-330.9001 328.2778,-327.4 318.2778,-323.9001 318.2778,-330.9001"/>
<text text-anchor="middle" x="278.2531" y="-330.1" font-family="Arial" font-size="9.00" fill="#000000">use</text>
</g>
<!-- gateway -->
<g id="node5" class="node">
<title>gateway</title>
<polygon fill="#ffb6c1" stroke="transparent" points="575.0037,-339.4 575.0037,-455.4 679.0037,-455.4 679.0037,-339.4 575.0037,-339.4"/>
<text text-anchor="start" x="615.0647" y="-430.4" font-family="Times,serif" font-size="20.00" fill="#000000">🚪</text>
<text text-anchor="start" x="581.72" y="-402.8" font-family="Times,serif" font-style="italic" font-size="14.00" fill="#000000">«api gateway»</text>
<text text-anchor="start" x="589.105" y="-376.8" font-family="Times,serif" font-weight="bold" font-size="14.00" fill="#000000">API Gateway</text>
<text text-anchor="start" x="611.4504" y="-349.8" font-family="Times,serif" font-size="14.00" fill="#000000">Kong</text>
<polygon fill="none" stroke="#000000" points="575.0037,-339.4 575.0037,-455.4 679.0037,-455.4 679.0037,-339.4 575.0037,-339.4"/>
</g>
<!-- web&#45;&gt;gateway -->
<g id="edge4" class="edge">
<title>web&#45;&gt;gateway</title>
<path fill="none" stroke="#0000ff" d="M451.6558,-355.9C451.6558,-355.9 556.8917,-355.9 556.8917,-355.9"/>
<polygon fill="#0000ff" stroke="#0000ff" points="556.8917,-359.4001 566.8917,-355.9 556.8916,-352.4001 556.8917,-359.4001"/>
<text text-anchor="middle" x="509.2549" y="-371.1" font-family="Arial" font-size="9.00" fill="#000000">HTTPS</text>
</g>
<!-- mobile&#45;&gt;gateway -->
<g id="edge5" class="edge">
<title>mobile&#45;&gt;gateway</title>
<path fill="none" stroke="#0000ff" d="M447.6793,-439.4C447.6793,-439.4 557.003,-439.4 557.003,-439.4"/>
<polygon fill="#0000ff" stroke="#0000ff" points="557.003,-442.9001 567.003,-439.4 557.003,-435.9001 557.003,-442.9001"/>
<text text-anchor="middle" x="509.2549" y="-450.1" font-family="Arial" font-size="9.00" fill="#000000">HTTPS</text>
</g>
<!-- auth -->
<g id="node6" class="node">
<title>auth</title>
<polygon fill="#ffb6c1" stroke="transparent" points="805.0031,-76.4 805.0031,-170.4 908.0031,-170.4 908.0031,-76.4 805.0031,-76.4"/>
<text text-anchor="start" x="845.0031" y="-141.8" font-family="Times,serif" font-size="24.00" fill="#000000">🔐</text>
<text text-anchor="start" x="812.2934" y="-113.8" font-family="Times,serif" font-style="italic" font-size="14.00" fill="#000000">«Java/Spring»</text>
<text text-anchor="start" x="843.0045" y="-87.8" font-family="Times,serif" font-weight="bold" font-size="14.00" fill="#000000">Auth</text>
<polygon fill="none" stroke="#000000" points="805.0031,-76.4 805.0031,-170.4 908.0031,-170.4 908.0031,-76.4 805.0031,-76.4"/>
</g>
<!-- gateway&#45;&gt;auth -->
<g id="edge6" class="edge">
<title>gateway&#45;&gt;auth</title>
<path fill="none" stroke="#0000ff" d="M687.2069,-339.0667C746.0225,-339.0667 826.7561,-339.0667 826.7561,-339.0667 826.7561,-339.0667 826.7561,-184.51 826.7561,-184.51"/>
<polygon fill="#0000ff" stroke="#0000ff" points="830.2562,-184.51 826.7561,-174.51 823.2562,-184.51 830.2562,-184.51"/>
<text text-anchor="middle" x="742.0034" y="-234.1" font-family="Arial" font-size="9.00" fill="#000000">gRPC</text>
</g>
<!-- orders -->
<g id="node7" class="node">
<title>orders</title>
<polygon fill="#ffb6c1" stroke="transparent" points="805.0031,-350.4 805.0031,-444.4 908.0031,-444.4 908.0031,-350.4 805.0031,-350.4"/>
<text text-anchor="start" x="845.0031" y="-415.8" font-family="Times,serif" font-size="24.00" fill="#000000">📋</text>
<text text-anchor="start" x="812.2934" y="-387.8" font-family="Times,serif" font-style="italic" font-size="14.00" fill="#000000">«Java/Spring»</text>
<text text-anchor="start" x="837.9596" y="-361.8" font-family="Times,serif" font-weight="bold" font-size="14.00" fill="#000000">Orders</text>
<polygon fill="none" stroke="#000000" points="805.0031,-350.4 805.0031,-444.4 908.0031,-444.4 908.0031,-350.4 805.0031,-350.4"/>
</g>
<!-- gateway&#45;&gt;orders -->
<g id="edge7" class="edge">
<title>gateway&#45;&gt;orders</title>
<path fill="none" stroke="#0000ff" d="M687.302,-397.4C687.302,-397.4 786.6075,-397.4 786.6075,-397.4"/>
<polygon fill="#0000ff" stroke="#0000ff" points="786.6076,-400.9001 796.6075,-397.4 786.6075,-393.9001 786.6076,-400.9001"/>
<text text-anchor="middle" x="742.0034" y="-400.1" font-family="Arial" font-size="9.00" fill="#000000">gRPC</text>
</g>
<!-- payments -->
<g id="node8" class="node">
<title>payments</title>
<polygon fill="#ffb6c1" stroke="transparent" points="1192.0007,-350.4 1192.0007,-444.4 1295.0007,-444.4 1295.0007,-350.4 1192.0007,-350.4"/>
<text text-anchor="start" x="1229.0007" y="-415.8" font-family="Times,serif" font-size="24.00" fill="#000000">💳</text>
<text text-anchor="start" x="1199.291" y="-387.8" font-family="Times,serif" font-style="italic" font-size="14.00" fill="#000000">«Java/Spring»</text>
<text text-anchor="start" x="1216.7819" y="-361.8" font-family="Times,serif" font-weight="bold" font-size="14.00" fill="#000000">Payments</text>
<polygon fill="none" stroke="#000000" points="1192.0007,-350.4 1192.0007,-444.4 1295.0007,-444.4 1295.0007,-350.4 1192.0007,-350.4"/>
</g>
<!-- gateway&#45;&gt;payments -->
<g id="edge8" class="edge">
<title>gateway&#45;&gt;payments</title>
<path fill="none" stroke="#0000ff" d="M687.2281,-342.7333C832.4028,-342.7333 1189.7561,-342.7333 1189.7561,-342.7333 1189.7561,-342.7333 1189.7561,-343.092 1189.7561,-343.092"/>
<polygon fill="#0000ff" stroke="#0000ff" points="1186.2564,-336.3201 1189.7561,-346.3202 1193.2564,-336.3203 1186.2564,-336.3201"/>
<text text-anchor="middle" x="971.0028" y="-516.1" font-family="Arial" font-size="9.00" fill="#000000">gRPC</text>
</g>
<!-- redis -->
<g id="node9" class="node">
<title>redis</title>
<path fill="none" stroke="#000000" d="M1293.3591,-238.3777C1293.3591,-241.563 1271.0118,-244.1505 1243.5007,-244.1505 1215.9896,-244.1505 1193.6423,-241.563 1193.6423,-238.3777 1193.6423,-238.3777 1193.6423,-186.4223 1193.6423,-186.4223 1193.6423,-183.237 1215.9896,-180.6495 1243.5007,-180.6495 1271.0118,-180.6495 1293.3591,-183.237 1293.3591,-186.4223 1293.3591,-186.4223 1293.3591,-238.3777 1293.3591,-238.3777"/>
<path fill="none" stroke="#000000" d="M1293.3591,-238.3777C1293.3591,-235.1923 1271.0118,-232.6049 1243.5007,-232.6049 1215.9896,-232.6049 1193.6423,-235.1923 1193.6423,-238.3777"/>
<text text-anchor="start" x="1201.8218" y="-210.8" font-family="Times,serif" font-size="24.00" fill="#000000">⚡</text>
<text text-anchor="start" x="1221.8114" y="-210.8" font-family="Times,serif" font-size="14.00" fill="#000000"> </text>
<text text-anchor="start" x="1229.972" y="-210.8" font-family="Times,serif" font-style="italic" font-size="14.00" fill="#000000">«Redis»</text>
<text text-anchor="start" x="1226.0105" y="-195.8" font-family="Times,serif" font-weight="bold" font-size="14.00" fill="#000000">Cache</text>
</g>
<!-- auth&#45;&gt;redis -->
<g id="edge11" class="edge">
<title>auth&#45;&gt;redis</title>
<path fill="none" stroke="#0000ff" stroke-dasharray="5,2" d="M916.1627,-164.3167C1024.7903,-164.3167 1243.7561,-164.3167 1243.7561,-164.3167 1243.7561,-164.3167 1243.7561,-170.5955 1243.7561,-170.5955"/>
<polygon fill="#0000ff" stroke="#0000ff" points="1240.2562,-170.5955 1243.7561,-180.5955 1247.2562,-170.5955 1240.2562,-170.5955"/>
<text text-anchor="middle" x="1050.2534" y="-220.1" font-family="Arial" font-size="9.00" fill="#000000">сессии</text>
</g>
<!-- user_db -->
<g id="node10" class="node">
<title>user_db</title>
<path fill="none" stroke="#000000" d="M1577.6344,-232.4475C1577.6344,-234.9057 1553.54,-236.9025 1523.8781,-236.9025 1494.2162,-236.9025 1470.1218,-234.9057 1470.1218,-232.4475 1470.1218,-232.4475 1470.1218,-192.3525 1470.1218,-192.3525 1470.1218,-189.8943 1494.2162,-187.8975 1523.8781,-187.8975 1553.54,-187.8975 1577.6344,-189.8943 1577.6344,-192.3525 1577.6344,-192.3525 1577.6344,-232.4475 1577.6344,-232.4475"/>
<path fill="none" stroke="#000000" d="M1577.6344,-232.4475C1577.6344,-229.9893 1553.54,-227.9925 1523.8781,-227.9925 1494.2162,-227.9925 1470.1218,-229.9893 1470.1218,-232.4475"/>
<text text-anchor="start" x="1478.0001" y="-214.8" font-family="Times,serif" font-style="italic" font-size="14.00" fill="#000000">«PostgreSQL»</text>
<text text-anchor="start" x="1500.9433" y="-200.8" font-family="Times,serif" font-weight="bold" font-size="14.00" fill="#000000">UserDB</text>
</g>
<!-- auth&#45;&gt;user_db -->
<g id="edge13" class="edge">
<title>auth&#45;&gt;user_db</title>
<path fill="none" stroke="#0000ff" d="M916.0998,-154.2333C1079.8853,-154.2333 1524.7561,-154.2333 1524.7561,-154.2333 1524.7561,-154.2333 1524.7561,-177.7321 1524.7561,-177.7321"/>
<polygon fill="#0000ff" stroke="#0000ff" points="1521.2562,-177.7321 1524.7561,-187.7321 1528.2562,-177.7321 1521.2562,-177.7321"/>
<text text-anchor="middle" x="1129.2525" y="-112.1" font-family="Arial" font-size="9.00" fill="#000000">JDBC</text>
</g>
<!-- orders&#45;&gt;auth -->
<g id="edge10" class="edge">
<title>orders&#45;&gt;auth</title>
<path fill="none" stroke="#0000ff" stroke-dasharray="5,2" d="M856.7561,-346.1841C856.7561,-346.1841 856.7561,-184.8292 856.7561,-184.8292"/>
<polygon fill="#0000ff" stroke="#0000ff" points="860.2562,-184.8292 856.7561,-174.8292 853.2562,-184.8293 860.2562,-184.8292"/>
</g>
<!-- orders&#45;&gt;payments -->
<g id="edge9" class="edge">
<title>orders&#45;&gt;payments</title>
<path fill="none" stroke="#0000ff" stroke-dasharray="5,2" d="M916.1234,-414.4C916.1234,-414.4 1173.8127,-414.4 1173.8127,-414.4"/>
<polygon fill="#0000ff" stroke="#0000ff" points="1173.8127,-417.9001 1183.8127,-414.4 1173.8127,-410.9001 1173.8127,-417.9001"/>
<text text-anchor="middle" x="1050.2534" y="-414.1" font-family="Arial" font-size="9.00" fill="#000000">process</text>
</g>
<!-- orders&#45;&gt;redis -->
<g id="edge12" class="edge">
<title>orders&#45;&gt;redis</title>
<path fill="none" stroke="#0000ff" stroke-dasharray="5,2" d="M886.7561,-346.3582C886.7561,-291.5993 886.7561,-212.4 886.7561,-212.4 886.7561,-212.4 1183.5213,-212.4 1183.5213,-212.4"/>
<polygon fill="#0000ff" stroke="#0000ff" points="1183.5213,-215.9001 1193.5213,-212.4 1183.5212,-208.9001 1183.5213,-215.9001"/>
<text text-anchor="middle" x="1050.2534" y="-317.1" font-family="Arial" font-size="9.00" fill="#000000">кэш</text>
</g>
<!-- order_db -->
<g id="node11" class="node">
<title>order_db</title>
<path fill="none" stroke="#000000" d="M1577.6344,-139.4475C1577.6344,-141.9057 1553.54,-143.9025 1523.8781,-143.9025 1494.2162,-143.9025 1470.1218,-141.9057 1470.1218,-139.4475 1470.1218,-139.4475 1470.1218,-99.3525 1470.1218,-99.3525 1470.1218,-96.8943 1494.2162,-94.8975 1523.8781,-94.8975 1553.54,-94.8975 1577.6344,-96.8943 1577.6344,-99.3525 1577.6344,-99.3525 1577.6344,-139.4475 1577.6344,-139.4475"/>
<path fill="none" stroke="#000000" d="M1577.6344,-139.4475C1577.6344,-136.9893 1553.54,-134.9925 1523.8781,-134.9925 1494.2162,-134.9925 1470.1218,-136.9893 1470.1218,-139.4475"/>
<text text-anchor="start" x="1478.0001" y="-121.8" font-family="Times,serif" font-style="italic" font-size="14.00" fill="#000000">«PostgreSQL»</text>
<text text-anchor="start" x="1497.8353" y="-107.8" font-family="Times,serif" font-weight="bold" font-size="14.00" fill="#000000">OrderDB</text>
</g>
<!-- orders&#45;&gt;order_db -->
<g id="edge14" class="edge">
<title>orders&#45;&gt;order_db</title>
<path fill="none" stroke="#0000ff" d="M916.1055,-380.4C973.2071,-380.4 1050.7561,-380.4 1050.7561,-380.4 1050.7561,-380.4 1050.7561,-119.4 1050.7561,-119.4 1050.7561,-119.4 1460.0656,-119.4 1460.0656,-119.4"/>
<polygon fill="#0000ff" stroke="#0000ff" points="1460.0657,-122.9001 1470.0656,-119.4 1460.0656,-115.9001 1460.0657,-122.9001"/>
<text text-anchor="middle" x="1129.2525" y="-25.1" font-family="Arial" font-size="9.00" fill="#000000">JDBC</text>
</g>
<!-- payment_gateway -->
<g id="node12" class="node">
<title>payment_gateway</title>
<polygon fill="#d3d3d3" stroke="transparent" points="1482.8781,-352.4 1482.8781,-442.4 1564.8781,-442.4 1564.8781,-352.4 1482.8781,-352.4"/>
<text text-anchor="start" x="1511.3781" y="-417.4" font-family="Times,serif" font-size="20.00" fill="#000000">🏦</text>
<text text-anchor="start" x="1489.6747" y="-389.8" font-family="Times,serif" font-style="italic" font-size="14.00" fill="#000000">«external»</text>
<text text-anchor="start" x="1507.1586" y="-363.8" font-family="Times,serif" font-weight="bold" font-size="14.00" fill="#000000">Stripe</text>
<polygon fill="none" stroke="#000000" points="1482.8781,-352.4 1482.8781,-442.4 1564.8781,-442.4 1564.8781,-352.4 1482.8781,-352.4"/>
</g>
<!-- payments&#45;&gt;payment_gateway -->
<g id="edge15" class="edge">
<title>payments&#45;&gt;payment_gateway</title>
<path fill="none" stroke="#0000ff" stroke-dasharray="5,2" d="M1303.3048,-397.4C1303.3048,-397.4 1464.4498,-397.4 1464.4498,-397.4"/>
<polygon fill="#0000ff" stroke="#0000ff" points="1464.4499,-400.9001 1474.4498,-397.4 1464.4498,-393.9001 1464.4499,-400.9001"/>
<text text-anchor="middle" x="1358.0004" y="-400.1" font-family="Arial" font-size="9.00" fill="#000000">REST</text>
</g>
<!-- redis&#45;&gt;user_db -->
</g>
</svg>
