<?xml version="1.0" encoding="UTF-8" standalone="no"?>
<!DOCTYPE svg PUBLIC "-//W3C//DTD SVG 1.1//EN"
 "http://www.w3.org/Graphics/SVG/1.1/DTD/svg11.dtd">
<!-- Generated by graphviz version 2.40.1 (20161225.0304)
 -->
<!-- Title: %0 Pages: 1 -->
<svg width="197pt" height="322pt"
 viewBox="0.00 0.00 197.00 321.60" xmlns="http://www.w3.org/2000/svg" xmlns:xlink="http://www.w3.org/1999/xlink">
<g id="graph0" class="graph" transform="scale(1 1) rotate(0) translate(4 317.6)">
<title>%0</title>
<polygon fill="#ffffff" stroke="transparent" points="-4,4 -4,-317.6 193,-317.6 193,4 -4,4"/>
<g id="clust1" class="cluster">
<title>cluster_0</title>
<polygon fill="none" stroke="#000000" points="8,-8 8,-305.6 91,-305.6 91,-8 8,-8"/>
<text text-anchor="middle" x="49.5" y="-289" font-family="Times,serif" font-size="14.00" fill="#000000">Subgraph A</text>
</g>
<g id="clust2" class="cluster">
<title>cluster_1</title>
<polygon fill="none" stroke="#000000" points="99,-152 99,-228.8 181,-228.8 181,-152 99,-152"/>
<text text-anchor="middle" x="140" y="-212.2" font-family="Times,serif" font-size="14.00" fill="#000000">Subgraph B</text>
</g>
<!-- a -->
<g id="node1" class="node">
<title>a</title>
<ellipse fill="none" stroke="#000000" cx="56" cy="-254.8" rx="27" ry="18"/>
<text text-anchor="middle" x="56" y="-250.6" font-family="Times,serif" font-size="14.00" fill="#000000">a</text>
</g>
<!-- b -->
<g id="node2" class="node">
<title>b</title>
<ellipse fill="none" stroke="#000000" cx="56" cy="-178" rx="27" ry="18"/>
<text text-anchor="middle" x="56" y="-173.8" font-family="Times,serif" font-size="14.00" fill="#000000">b</text>
</g>
<!-- a&#45;&gt;b -->
<g id="edge1" class="edge">
<title>a&#45;&gt;b</title>
<path fill="none" stroke="#000000" d="M56,-236.5995C56,-227.5132 56,-216.3176 56,-206.1549"/>
<polygon fill="#000000" stroke="#000000" points="59.5001,-206.0698 56,-196.0699 52.5001,-206.0699 59.5001,-206.0698"/>
</g>
<!-- f -->
<g id="node5" class="node">
<title>f</title>
<ellipse fill="none" stroke="#000000" cx="134" cy="-178" rx="27" ry="18"/>
<text text-anchor="middle" x="134" y="-173.8" font-family="Times,serif" font-size="14.00" fill="#000000">f</text>
</g>
<!-- a&#45;&gt;f -->
<g id="edge4" class="edge">
<title>a&#45;&gt;f</title>
<path fill="none" stroke="#000000" d="M76.7781,-242.7568C82.958,-238.7105 89.5326,-233.9142 95,-228.8 103.1607,-221.1666 110.9245,-211.6974 117.3454,-203.0103"/>
<polygon fill="#000000" stroke="#000000" points="120.3285,-204.8552 123.2836,-194.6808 114.6287,-200.7917 120.3285,-204.8552"/>
</g>
<!-- c -->
<g id="node3" class="node">
<title>c</title>
<ellipse fill="none" stroke="#000000" cx="56" cy="-106" rx="27" ry="18"/>
<text text-anchor="middle" x="56" y="-101.8" font-family="Times,serif" font-size="14.00" fill="#000000">c</text>
</g>
<!-- b&#45;&gt;c -->
<g id="edge2" class="edge">
<title>b&#45;&gt;c</title>
<path fill="none" stroke="#000000" d="M56,-159.8314C56,-152.131 56,-142.9743 56,-134.4166"/>
<polygon fill="#000000" stroke="#000000" points="59.5001,-134.4132 56,-124.4133 52.5001,-134.4133 59.5001,-134.4132"/>
</g>
<!-- d -->
<g id="node4" class="node">
<title>d</title>
<ellipse fill="none" stroke="#000000" cx="56" cy="-34" rx="27" ry="18"/>
<text text-anchor="middle" x="56" y="-29.8" font-family="Times,serif" font-size="14.00" fill="#000000">d</text>
</g>
<!-- c&#45;&gt;d -->
<g id="edge3" class="edge">
<title>c&#45;&gt;d</title>
<path fill="none" stroke="#000000" d="M56,-87.8314C56,-80.131 56,-70.9743 56,-62.4166"/>
<polygon fill="#000000" stroke="#000000" points="59.5001,-62.4132 56,-52.4133 52.5001,-62.4133 59.5001,-62.4132"/>
</g>
<!-- f&#45;&gt;c -->
<g id="edge5" class="edge">
<title>f&#45;&gt;c</title>
<path fill="none" stroke="#000000" d="M117.8383,-163.0816C106.6786,-152.7802 91.6666,-138.923 79.2285,-127.4417"/>
<polygon fill="#000000" stroke="#000000" points="81.5961,-124.864 71.8741,-120.653 76.8481,-130.0076 81.5961,-124.864"/>
</g>
</g>
</svg>
