<?xml version="1.0" encoding="UTF-8" standalone="no"?>
<!DOCTYPE svg PUBLIC "-//W3C//DTD SVG 1.1//EN"
 "http://www.w3.org/Graphics/SVG/1.1/DTD/svg11.dtd">
<!-- Generated by graphviz version 2.40.1 (20161225.0304)
 -->
<!-- Title: %0 Pages: 1 -->
<svg width="692pt" height="229pt"
 viewBox="0.00 0.00 692.00 229.00" xmlns="http://www.w3.org/2000/svg" xmlns:xlink="http://www.w3.org/1999/xlink">
<g id="graph0" class="graph" transform="scale(1 1) rotate(0) translate(4 225)">
<title>%0</title>
<polygon fill="#ffffff" stroke="transparent" points="-4,4 -4,-225 688,-225 688,4 -4,4"/>
<!-- a -->
<g id="node1" class="node">
<title>a</title>
<polygon fill="none" stroke="#000000" points="54,-167 0,-167 0,-131 54,-131 54,-167"/>
<text text-anchor="middle" x="27" y="-144.8" font-family="Times,serif" font-size="14.00" fill="#000000">a</text>
</g>
<!-- b -->
<g id="node2" class="node">
<title>b</title>
<polygon fill="none" stroke="#000000" points="144,-221 90,-221 90,-185 144,-185 144,-221"/>
<text text-anchor="middle" x="117" y="-198.8" font-family="Times,serif" font-size="14.00" fill="#000000">b</text>
</g>
<!-- a&#45;&#45;b -->
<g id="edge1" class="edge">
<title>a&#45;&#45;b</title>
<path fill="none" stroke="#000000" d="M54.003,-165.2018C65.2905,-171.9743 78.3867,-179.832 89.705,-186.623"/>
</g>
<!-- c -->
<g id="node3" class="node">
<title>c</title>
<polygon fill="none" stroke="#000000" points="144,-167 90,-167 90,-131 144,-131 144,-167"/>
<text text-anchor="middle" x="117" y="-144.8" font-family="Times,serif" font-size="14.00" fill="#000000">c</text>
</g>
<!-- a&#45;&#45;c -->
<g id="edge2" class="edge">
<title>a&#45;&#45;c</title>
<path fill="none" stroke="#000000" d="M54.003,-149C65.2905,-149 78.3867,-149 89.705,-149"/>
</g>
<!-- d -->
<g id="node4" class="node">
<title>d</title>
<polygon fill="none" stroke="#000000" points="144,-113 90,-113 90,-77 144,-77 144,-113"/>
<text text-anchor="middle" x="117" y="-90.8" font-family="Times,serif" font-size="14.00" fill="#000000">d</text>
</g>
<!-- a&#45;&#45;d -->
<g id="edge3" class="edge">
<title>a&#45;&#45;d</title>
<path fill="none" stroke="#000000" d="M54.003,-132.7982C65.2905,-126.0257 78.3867,-118.168 89.705,-111.377"/>
</g>
<!-- b&#45;&#45;c -->
<g id="edge4" class="edge">
<title>b&#45;&#45;c</title>
<path fill="none" stroke="#000000" d="M117,-184.7902C117,-178.907 117,-173.0238 117,-167.1406"/>
</g>
<!-- e -->
<g id="node5" class="node">
<title>e</title>
<polygon fill="none" stroke="#000000" points="234,-221 180,-221 180,-185 234,-185 234,-221"/>
<text text-anchor="middle" x="207" y="-198.8" font-family="Times,serif" font-size="14.00" fill="#000000">e</text>
</g>
<!-- b&#45;&#45;e -->
<g id="edge5" class="edge">
<title>b&#45;&#45;e</title>
<path fill="none" stroke="#000000" d="M144.003,-203C155.2905,-203 168.3867,-203 179.705,-203"/>
</g>
<!-- c&#45;&#45;e -->
<g id="edge6" class="edge">
<title>c&#45;&#45;e</title>
<path fill="none" stroke="#000000" d="M144.003,-165.2018C155.2905,-171.9743 168.3867,-179.832 179.705,-186.623"/>
</g>
<!-- f -->
<g id="node6" class="node">
<title>f</title>
<polygon fill="none" stroke="#000000" points="234,-167 180,-167 180,-131 234,-131 234,-167"/>
<text text-anchor="middle" x="207" y="-144.8" font-family="Times,serif" font-size="14.00" fill="#000000">f</text>
</g>
<!-- c&#45;&#45;f -->
<g id="edge7" class="edge">
<title>c&#45;&#45;f</title>
<path fill="none" stroke="#000000" d="M144.003,-149C155.2905,-149 168.3867,-149 179.705,-149"/>
</g>
<!-- d&#45;&#45;f -->
<g id="edge8" class="edge">
<title>d&#45;&#45;f</title>
<path fill="none" stroke="#000000" d="M144.003,-111.2018C155.2905,-117.9743 168.3867,-125.832 179.705,-132.623"/>
</g>
<!-- g -->
<g id="node7" class="node">
<title>g</title>
<polygon fill="none" stroke="#000000" points="234,-113 180,-113 180,-77 234,-77 234,-113"/>
<text text-anchor="middle" x="207" y="-90.8" font-family="Times,serif" font-size="14.00" fill="#000000">g</text>
</g>
<!-- d&#45;&#45;g -->
<g id="edge9" class="edge">
<title>d&#45;&#45;g</title>
<path fill="none" stroke="#000000" d="M144.003,-95C155.2905,-95 168.3867,-95 179.705,-95"/>
</g>
<!-- h -->
<g id="node8" class="node">
<title>h</title>
<polygon fill="none" stroke="#000000" points="324,-221 270,-221 270,-185 324,-185 324,-221"/>
<text text-anchor="middle" x="297" y="-198.8" font-family="Times,serif" font-size="14.00" fill="#000000">h</text>
</g>
<!-- e&#45;&#45;h -->
<g id="edge10" class="edge">
<title>e&#45;&#45;h</title>
<path fill="none" stroke="#000000" d="M234.003,-203C245.2905,-203 258.3867,-203 269.705,-203"/>
</g>
<!-- f&#45;&#45;g -->
<g id="edge11" class="edge">
<title>f&#45;&#45;g</title>
<path fill="none" stroke="#000000" d="M207,-130.7902C207,-124.907 207,-119.0238 207,-113.1406"/>
</g>
<!-- f&#45;&#45;h -->
<g id="edge12" class="edge">
<title>f&#45;&#45;h</title>
<path fill="none" stroke="#000000" d="M234.003,-165.2018C245.2905,-171.9743 258.3867,-179.832 269.705,-186.623"/>
</g>
<!-- i -->
<g id="node9" class="node">
<title>i</title>
<polygon fill="none" stroke="#000000" points="324,-167 270,-167 270,-131 324,-131 324,-167"/>
<text text-anchor="middle" x="297" y="-144.8" font-family="Times,serif" font-size="14.00" fill="#000000">i</text>
</g>
<!-- f&#45;&#45;i -->
<g id="edge13" class="edge">
<title>f&#45;&#45;i</title>
<path fill="none" stroke="#000000" d="M234.003,-149C245.2905,-149 258.3867,-149 269.705,-149"/>
</g>
<!-- j -->
<g id="node10" class="node">
<title>j</title>
<polygon fill="none" stroke="#000000" points="324,-113 270,-113 270,-77 324,-77 324,-113"/>
<text text-anchor="middle" x="297" y="-90.8" font-family="Times,serif" font-size="14.00" fill="#000000">j</text>
</g>
<!-- f&#45;&#45;j -->
<g id="edge14" class="edge">
<title>f&#45;&#45;j</title>
<path fill="none" stroke="#000000" d="M234.003,-132.7982C245.2905,-126.0257 258.3867,-118.168 269.705,-111.377"/>
</g>
<!-- k -->
<g id="node11" class="node">
<title>k</title>
<polygon fill="none" stroke="#000000" points="324,-59 270,-59 270,-23 324,-23 324,-59"/>
<text text-anchor="middle" x="297" y="-36.8" font-family="Times,serif" font-size="14.00" fill="#000000">k</text>
</g>
<!-- g&#45;&#45;k -->
<g id="edge15" class="edge">
<title>g&#45;&#45;k</title>
<path fill="none" stroke="#000000" d="M234.003,-78.7982C245.2905,-72.0257 258.3867,-64.168 269.705,-57.377"/>
</g>
<!-- o -->
<g id="node12" class="node">
<title>o</title>
<polygon fill="none" stroke="#000000" points="504,-198 450,-198 450,-162 504,-162 504,-198"/>
<text text-anchor="middle" x="477" y="-175.8" font-family="Times,serif" font-size="14.00" fill="#000000">o</text>
</g>
<!-- h&#45;&#45;o -->
<g id="edge16" class="edge">
<title>h&#45;&#45;o</title>
<path fill="none" stroke="#000000" d="M324.2564,-207.5195C348.1649,-210.6367 383.7379,-213.2115 414,-207 426.2395,-204.4878 439.0371,-199.4942 449.876,-194.4774"/>
</g>
<!-- l -->
<g id="node13" class="node">
<title>l</title>
<polygon fill="none" stroke="#000000" points="414,-198 360,-198 360,-162 414,-162 414,-198"/>
<text text-anchor="middle" x="387" y="-175.8" font-family="Times,serif" font-size="14.00" fill="#000000">l</text>
</g>
<!-- h&#45;&#45;l -->
<g id="edge17" class="edge">
<title>h&#45;&#45;l</title>
<path fill="none" stroke="#000000" d="M324.003,-196.0992C335.2905,-193.2147 348.3867,-189.8679 359.705,-186.9754"/>
</g>
<!-- i&#45;&#45;j -->
<g id="edge18" class="edge">
<title>i&#45;&#45;j</title>
<path fill="none" stroke="#000000" d="M297,-130.7902C297,-124.907 297,-119.0238 297,-113.1406"/>
</g>
<!-- i&#45;&#45;l -->
<g id="edge19" class="edge">
<title>i&#45;&#45;l</title>
<path fill="none" stroke="#000000" d="M324.003,-158.301C335.2905,-162.1889 348.3867,-166.6998 359.705,-170.5984"/>
</g>
<!-- m -->
<g id="node14" class="node">
<title>m</title>
<polygon fill="none" stroke="#000000" points="414,-144 360,-144 360,-108 414,-108 414,-144"/>
<text text-anchor="middle" x="387" y="-121.8" font-family="Times,serif" font-size="14.00" fill="#000000">m</text>
</g>
<!-- i&#45;&#45;m -->
<g id="edge20" class="edge">
<title>i&#45;&#45;m</title>
<path fill="none" stroke="#000000" d="M324.003,-142.0992C335.2905,-139.2147 348.3867,-135.8679 359.705,-132.9754"/>
</g>
<!-- j&#45;&#45;k -->
<g id="edge21" class="edge">
<title>j&#45;&#45;k</title>
<path fill="none" stroke="#000000" d="M297,-76.7902C297,-70.907 297,-65.0238 297,-59.1406"/>
</g>
<!-- j&#45;&#45;m -->
<g id="edge22" class="edge">
<title>j&#45;&#45;m</title>
<path fill="none" stroke="#000000" d="M324.003,-104.301C335.2905,-108.1889 348.3867,-112.6998 359.705,-116.5984"/>
</g>
<!-- n -->
<g id="node15" class="node">
<title>n</title>
<polygon fill="none" stroke="#000000" points="414,-90 360,-90 360,-54 414,-54 414,-90"/>
<text text-anchor="middle" x="387" y="-67.8" font-family="Times,serif" font-size="14.00" fill="#000000">n</text>
</g>
<!-- j&#45;&#45;n -->
<g id="edge23" class="edge">
<title>j&#45;&#45;n</title>
<path fill="none" stroke="#000000" d="M324.003,-88.0992C335.2905,-85.2147 348.3867,-81.8679 359.705,-78.9754"/>
</g>
<!-- k&#45;&#45;n -->
<g id="edge24" class="edge">
<title>k&#45;&#45;n</title>
<path fill="none" stroke="#000000" d="M324.003,-50.301C335.2905,-54.1889 348.3867,-58.6998 359.705,-62.5984"/>
</g>
<!-- r -->
<g id="node16" class="node">
<title>r</title>
<polygon fill="none" stroke="#000000" points="504,-36 450,-36 450,0 504,0 504,-36"/>
<text text-anchor="middle" x="477" y="-13.8" font-family="Times,serif" font-size="14.00" fill="#000000">r</text>
</g>
<!-- k&#45;&#45;r -->
<g id="edge25" class="edge">
<title>k&#45;&#45;r</title>
<path fill="none" stroke="#000000" d="M324.3381,-37.5068C358.3667,-33.1587 416.1212,-25.779 449.9944,-21.4507"/>
</g>
<!-- p -->
<g id="node17" class="node">
<title>p</title>
<polygon fill="none" stroke="#000000" points="504,-144 450,-144 450,-108 504,-108 504,-144"/>
<text text-anchor="middle" x="477" y="-121.8" font-family="Times,serif" font-size="14.00" fill="#000000">p</text>
</g>
<!-- o&#45;&#45;p -->
<g id="edge33" class="edge">
<title>o&#45;&#45;p</title>
<path fill="none" stroke="#000000" d="M477,-161.7902C477,-155.907 477,-150.0238 477,-144.1406"/>
</g>
<!-- s -->
<g id="node19" class="node">
<title>s</title>
<polygon fill="none" stroke="#000000" points="594,-144 540,-144 540,-108 594,-108 594,-144"/>
<text text-anchor="middle" x="567" y="-121.8" font-family="Times,serif" font-size="14.00" fill="#000000">s</text>
</g>
<!-- o&#45;&#45;s -->
<g id="edge34" class="edge">
<title>o&#45;&#45;s</title>
<path fill="none" stroke="#000000" d="M504.003,-163.7982C515.2905,-157.0257 528.3867,-149.168 539.705,-142.377"/>
</g>
<!-- l&#45;&#45;o -->
<g id="edge26" class="edge">
<title>l&#45;&#45;o</title>
<path fill="none" stroke="#000000" d="M414.003,-180C425.2905,-180 438.3867,-180 449.705,-180"/>
</g>
<!-- l&#45;&#45;m -->
<g id="edge27" class="edge">
<title>l&#45;&#45;m</title>
<path fill="none" stroke="#000000" d="M387,-161.7902C387,-155.907 387,-150.0238 387,-144.1406"/>
</g>
<!-- m&#45;&#45;o -->
<g id="edge28" class="edge">
<title>m&#45;&#45;o</title>
<path fill="none" stroke="#000000" d="M414.003,-142.2018C425.2905,-148.9743 438.3867,-156.832 449.705,-163.623"/>
</g>
<!-- m&#45;&#45;n -->
<g id="edge29" class="edge">
<title>m&#45;&#45;n</title>
<path fill="none" stroke="#000000" d="M387,-107.7902C387,-101.907 387,-96.0238 387,-90.1406"/>
</g>
<!-- m&#45;&#45;p -->
<g id="edge30" class="edge">
<title>m&#45;&#45;p</title>
<path fill="none" stroke="#000000" d="M414.003,-126C425.2905,-126 438.3867,-126 449.705,-126"/>
</g>
<!-- n&#45;&#45;r -->
<g id="edge31" class="edge">
<title>n&#45;&#45;r</title>
<path fill="none" stroke="#000000" d="M414.003,-55.7982C425.2905,-49.0257 438.3867,-41.168 449.705,-34.377"/>
</g>
<!-- q -->
<g id="node18" class="node">
<title>q</title>
<polygon fill="none" stroke="#000000" points="504,-90 450,-90 450,-54 504,-54 504,-90"/>
<text text-anchor="middle" x="477" y="-67.8" font-family="Times,serif" font-size="14.00" fill="#000000">q</text>
</g>
<!-- n&#45;&#45;q -->
<g id="edge32" class="edge">
<title>n&#45;&#45;q</title>
<path fill="none" stroke="#000000" d="M414.003,-72C425.2905,-72 438.3867,-72 449.705,-72"/>
</g>
<!-- t -->
<g id="node20" class="node">
<title>t</title>
<polygon fill="none" stroke="#000000" points="594,-90 540,-90 540,-54 594,-54 594,-90"/>
<text text-anchor="middle" x="567" y="-67.8" font-family="Times,serif" font-size="14.00" fill="#000000">t</text>
</g>
<!-- r&#45;&#45;t -->
<g id="edge40" class="edge">
<title>r&#45;&#45;t</title>
<path fill="none" stroke="#000000" d="M504.003,-34.2018C515.2905,-40.9743 528.3867,-48.832 539.705,-55.623"/>
</g>
<!-- p&#45;&#45;q -->
<g id="edge35" class="edge">
<title>p&#45;&#45;q</title>
<path fill="none" stroke="#000000" d="M477,-107.7902C477,-101.907 477,-96.0238 477,-90.1406"/>
</g>
<!-- p&#45;&#45;s -->
<g id="edge36" class="edge">
<title>p&#45;&#45;s</title>
<path fill="none" stroke="#000000" d="M504.003,-126C515.2905,-126 528.3867,-126 539.705,-126"/>
</g>
<!-- p&#45;&#45;t -->
<g id="edge37" class="edge">
<title>p&#45;&#45;t</title>
<path fill="none" stroke="#000000" d="M504.003,-109.7982C515.2905,-103.0257 528.3867,-95.168 539.705,-88.377"/>
</g>
<!-- q&#45;&#45;r -->
<g id="edge38" class="edge">
<title>q&#45;&#45;r</title>
<path fill="none" stroke="#000000" d="M477,-53.7902C477,-47.907 477,-42.0238 477,-36.1406"/>
</g>
<!-- q&#45;&#45;t -->
<g id="edge39" class="edge">
<title>q&#45;&#45;t</title>
<path fill="none" stroke="#000000" d="M504.003,-72C515.2905,-72 528.3867,-72 539.705,-72"/>
</g>
<!-- z -->
<g id="node21" class="node">
<title>z</title>
<polygon fill="none" stroke="#000000" points="684,-117 630,-117 630,-81 684,-81 684,-117"/>
<text text-anchor="middle" x="657" y="-94.8" font-family="Times,serif" font-size="14.00" fill="#000000">z</text>
</g>
<!-- s&#45;&#45;z -->
<g id="edge41" class="edge">
<title>s&#45;&#45;z</title>
<path fill="none" stroke="#000000" d="M594.003,-117.8991C605.2905,-114.5129 618.3867,-110.584 629.705,-107.1885"/>
</g>
<!-- t&#45;&#45;z -->
<g id="edge42" class="edge">
<title>t&#45;&#45;z</title>
<path fill="none" stroke="#000000" d="M594.003,-80.1009C605.2905,-83.4871 618.3867,-87.416 629.705,-90.8115"/>
</g>
</g>
</svg>
